<?xml version="1.0" encoding="utf-8"?>
<!-- Generator: Adobe Illustrator 23.0.4, SVG Export Plug-In . SVG Version: 6.00 Build 0)  -->
<svg version="1.1" id="pdf-frame" xmlns="http://www.w3.org/2000/svg" xmlns:xlink="http://www.w3.org/1999/xlink" x="0px" y="0px"
	 viewBox="0 0 279 361.7" style="enable-background:new 0 0 279 361.7;" xml:space="preserve">
<style type="text/css">
	.frame-color{fill:#222222;}
	.background-color{fill:#F6F6F6;}
	.text-color{fill:#FFFFFF;}
	.icon-color{fill:#222222;opacity:1;}
	.icon-black{fill:#000000;opacity:0}

	.circle-color{fill:#222222;}
	.circle-color-black{fill:#FFFFFF;}
	.circle-outline{fill:#000000;opacity:0}

	.show_on_light{opacity:0;}
	.hide_on_light{opacity:1;}
</style>

<svg xmlns="http://www.w3.org/2000/svg" xmlns:xlink="http://www.w3.org/1999/xlink" version="1.1" width="259.8" height="259.8" viewBox="0 0 2000 2000" x="9.6" y="9.6" shape-rendering="crispEdges"><defs/><rect x="0" y="0" width="2000" height="2000" fill="#f6f6f6"/><rect x="566" y="158" width="51" height="51" fill="#000000"/><rect x="719" y="158" width="51" height="51" fill="#000000"/><rect x="770" y="158" width="51" height="51" fill="#000000"/><rect x="821" y="158" width="51" height="51" fill="#000000"/><rect x="923" y="158" width="51" height="51" fill="#000000"/><rect x="1076" y="158" width="51" height="51" fill="#000000"/><rect x="1127" y="158" width="51" height="51" fill="#000000"/><rect x="1229" y="158" width="51" height="51" fill="#000000"/><rect x="1280" y="158" width="51" height="51" fill="#000000"/><rect x="1331" y="158" width="51" height="51" fill="#000000"/><rect x="1382" y="158" width="51" height="51" fill="#000000"/><rect x="566" y="209" width="51" height="51" fill="#000000"/><rect x="668" y="209" width="51" height="51" fill="#000000"/><rect x="719" y="209" width="51" height="51" fill="#000000"/><rect x="770" y="209" width="51" height="51" fill="#000000"/><rect x="821" y="209" width="51" height="51" fill="#000000"/><rect x="974" y="209" width="51" height="51" fill="#000000"/><rect x="1178" y="209" width="51" height="51" fill="#000000"/><rect x="1280" y="209" width="51" height="51" fill="#000000"/><rect x="566" y="260" width="51" height="51" fill="#000000"/><rect x="668" y="260" width="51" height="51" fill="#000000"/><rect x="872" y="260" width="51" height="51" fill="#000000"/><rect x="923" y="260" width="51" height="51" fill="#000000"/><rect x="1025" y="260" width="51" height="51" fill="#000000"/><rect x="1127" y="260" width="51" height="51" fill="#000000"/><rect x="1178" y="260" width="51" height="51" fill="#000000"/><rect x="1229" y="260" width="51" height="51" fill="#000000"/><rect x="1331" y="260" width="51" height="51" fill="#000000"/><rect x="617" y="311" width="51" height="51" fill="#000000"/><rect x="668" y="311" width="51" height="51" fill="#000000"/><rect x="719" y="311" width="51" height="51" fill="#000000"/><rect x="770" y="311" width="51" height="51" fill="#000000"/><rect x="1229" y="311" width="51" height="51" fill="#000000"/><rect x="1280" y="311" width="51" height="51" fill="#000000"/><rect x="668" y="362" width="51" height="51" fill="#000000"/><rect x="719" y="362" width="51" height="51" fill="#000000"/><rect x="770" y="362" width="51" height="51" fill="#000000"/><rect x="872" y="362" width="51" height="51" fill="#000000"/><rect x="974" y="362" width="51" height="51" fill="#000000"/><rect x="1127" y="362" width="51" height="51" fill="#000000"/><rect x="1229" y="362" width="51" height="51" fill="#000000"/><rect x="1382" y="362" width="51" height="51" fill="#000000"/><rect x="566" y="413" width="51" height="51" fill="#000000"/><rect x="617" y="413" width="51" height="51" fill="#000000"/><rect x="668" y="413" width="51" height="51" fill="#000000"/><rect x="770" y="413" width="51" height="51" fill="#000000"/><rect x="872" y="413" width="51" height="51" fill="#000000"/><rect x="974" y="413" width="51" height="51" fill="#000000"/><rect x="1025" y="413" width="51" height="51" fill="#000000"/><rect x="1127" y="413" width="51" height="51" fill="#000000"/><rect x="1280" y="413" width="51" height="51" fill="#000000"/><rect x="566" y="464" width="51" height="51" fill="#000000"/><rect x="668" y="464" width="51" height="51" fill="#000000"/><rect x="770" y="464" width="51" height="51" fill="#000000"/><rect x="872" y="464" width="51" height="51" fill="#000000"/><rect x="974" y="464" width="51" height="51" fill="#000000"/><rect x="1076" y="464" width="51" height="51" fill="#000000"/><rect x="1178" y="464" width="51" height="51" fill="#000000"/><rect x="1280" y="464" width="51" height="51" fill="#000000"/><rect x="1382" y="464" width="51" height="51" fill="#000000"/><rect x="566" y="515" width="51" height="51" fill="#000000"/><rect x="617" y="515" width="51" height="51" fill="#000000"/><rect x="719" y="515" width="51" height="51" fill="#000000"/><rect x="821" y="515" width="51" height="51" fill="#000000"/><rect x="923" y="515" width="51" height="51" fill="#000000"/><rect x="1025" y="515" width="51" height="51" fill="#000000"/><rect x="1229" y="515" width="51" height="51" fill="#000000"/><rect x="1382" y="515" width="51" height="51" fill="#000000"/><rect x="260" y="566" width="51" height="51" fill="#000000"/><rect x="311" y="566" width="51" height="51" fill="#000000"/><rect x="362" y="566" width="51" height="51" fill="#000000"/><rect x="464" y="566" width="51" height="51" fill="#000000"/><rect x="566" y="566" width="51" height="51" fill="#000000"/><rect x="668" y="566" width="51" height="51" fill="#000000"/><rect x="770" y="566" width="51" height="51" fill="#000000"/><rect x="872" y="566" width="51" height="51" fill="#000000"/><rect x="974" y="566" width="51" height="51" fill="#000000"/><rect x="1025" y="566" width="51" height="51" fill="#000000"/><rect x="1433" y="566" width="51" height="51" fill="#000000"/><rect x="1484" y="566" width="51" height="51" fill="#000000"/><rect x="1535" y="566" width="51" height="51" fill="#000000"/><rect x="1688" y="566" width="51" height="51" fill="#000000"/><rect x="1739" y="566" width="51" height="51" fill="#000000"/><rect x="1790" y="566" width="51" height="51" fill="#000000"/><rect x="158" y="617" width="51" height="51" fill="#000000"/><rect x="260" y="617" width="51" height="51" fill="#000000"/><rect x="515" y="617" width="51" height="51" fill="#000000"/><rect x="566" y="617" width="51" height="51" fill="#000000"/><rect x="668" y="617" width="51" height="51" fill="#000000"/><rect x="719" y="617" width="51" height="51" fill="#000000"/><rect x="770" y="617" width="51" height="51" fill="#000000"/><rect x="821" y="617" width="51" height="51" fill="#000000"/><rect x="872" y="617" width="51" height="51" fill="#000000"/><rect x="1025" y="617" width="51" height="51" fill="#000000"/><rect x="1076" y="617" width="51" height="51" fill="#000000"/><rect x="1280" y="617" width="51" height="51" fill="#000000"/><rect x="1637" y="617" width="51" height="51" fill="#000000"/><rect x="1688" y="617" width="51" height="51" fill="#000000"/><rect x="1739" y="617" width="51" height="51" fill="#000000"/><rect x="1790" y="617" width="51" height="51" fill="#000000"/><rect x="209" y="668" width="51" height="51" fill="#000000"/><rect x="362" y="668" width="51" height="51" fill="#000000"/><rect x="413" y="668" width="51" height="51" fill="#000000"/><rect x="464" y="668" width="51" height="51" fill="#000000"/><rect x="515" y="668" width="51" height="51" fill="#000000"/><rect x="566" y="668" width="51" height="51" fill="#000000"/><rect x="617" y="668" width="51" height="51" fill="#000000"/><rect x="1331" y="668" width="51" height="51" fill="#000000"/><rect x="1382" y="668" width="51" height="51" fill="#000000"/><rect x="1433" y="668" width="51" height="51" fill="#000000"/><rect x="1586" y="668" width="51" height="51" fill="#000000"/><rect x="1739" y="668" width="51" height="51" fill="#000000"/><rect x="1790" y="668" width="51" height="51" fill="#000000"/><rect x="209" y="719" width="51" height="51" fill="#000000"/><rect x="311" y="719" width="51" height="51" fill="#000000"/><rect x="362" y="719" width="51" height="51" fill="#000000"/><rect x="566" y="719" width="51" height="51" fill="#000000"/><rect x="617" y="719" width="51" height="51" fill="#000000"/><rect x="1331" y="719" width="51" height="51" fill="#000000"/><rect x="1382" y="719" width="51" height="51" fill="#000000"/><rect x="1484" y="719" width="51" height="51" fill="#000000"/><rect x="1688" y="719" width="51" height="51" fill="#000000"/><rect x="1790" y="719" width="51" height="51" fill="#000000"/><rect x="209" y="770" width="51" height="51" fill="#000000"/><rect x="464" y="770" width="51" height="51" fill="#000000"/><rect x="515" y="770" width="51" height="51" fill="#000000"/><rect x="566" y="770" width="51" height="51" fill="#000000"/><rect x="1382" y="770" width="51" height="51" fill="#000000"/><rect x="1535" y="770" width="51" height="51" fill="#000000"/><rect x="1637" y="770" width="51" height="51" fill="#000000"/><rect x="209" y="821" width="51" height="51" fill="#000000"/><rect x="311" y="821" width="51" height="51" fill="#000000"/><rect x="362" y="821" width="51" height="51" fill="#000000"/><rect x="515" y="821" width="51" height="51" fill="#000000"/><rect x="566" y="821" width="51" height="51" fill="#000000"/><rect x="617" y="821" width="51" height="51" fill="#000000"/><rect x="1331" y="821" width="51" height="51" fill="#000000"/><rect x="1433" y="821" width="51" height="51" fill="#000000"/><rect x="1484" y="821" width="51" height="51" fill="#000000"/><rect x="1586" y="821" width="51" height="51" fill="#000000"/><rect x="1637" y="821" width="51" height="51" fill="#000000"/><rect x="158" y="872" width="51" height="51" fill="#000000"/><rect x="413" y="872" width="51" height="51" fill="#000000"/><rect x="464" y="872" width="51" height="51" fill="#000000"/><rect x="566" y="872" width="51" height="51" fill="#000000"/><rect x="1331" y="872" width="51" height="51" fill="#000000"/><rect x="1382" y="872" width="51" height="51" fill="#000000"/><rect x="1433" y="872" width="51" height="51" fill="#000000"/><rect x="1535" y="872" width="51" height="51" fill="#000000"/><rect x="1586" y="872" width="51" height="51" fill="#000000"/><rect x="1739" y="872" width="51" height="51" fill="#000000"/><rect x="158" y="923" width="51" height="51" fill="#000000"/><rect x="260" y="923" width="51" height="51" fill="#000000"/><rect x="413" y="923" width="51" height="51" fill="#000000"/><rect x="515" y="923" width="51" height="51" fill="#000000"/><rect x="566" y="923" width="51" height="51" fill="#000000"/><rect x="1331" y="923" width="51" height="51" fill="#000000"/><rect x="1382" y="923" width="51" height="51" fill="#000000"/><rect x="1433" y="923" width="51" height="51" fill="#000000"/><rect x="1484" y="923" width="51" height="51" fill="#000000"/><rect x="1586" y="923" width="51" height="51" fill="#000000"/><rect x="1637" y="923" width="51" height="51" fill="#000000"/><rect x="1790" y="923" width="51" height="51" fill="#000000"/><rect x="260" y="974" width="51" height="51" fill="#000000"/><rect x="311" y="974" width="51" height="51" fill="#000000"/><rect x="413" y="974" width="51" height="51" fill="#000000"/><rect x="464" y="974" width="51" height="51" fill="#000000"/><rect x="515" y="974" width="51" height="51" fill="#000000"/><rect x="1382" y="974" width="51" height="51" fill="#000000"/><rect x="1688" y="974" width="51" height="51" fill="#000000"/><rect x="1790" y="974" width="51" height="51" fill="#000000"/><rect x="158" y="1025" width="51" height="51" fill="#000000"/><rect x="209" y="1025" width="51" height="51" fill="#000000"/><rect x="260" y="1025" width="51" height="51" fill="#000000"/><rect x="362" y="1025" width="51" height="51" fill="#000000"/><rect x="413" y="1025" width="51" height="51" fill="#000000"/><rect x="515" y="1025" width="51" height="51" fill="#000000"/><rect x="566" y="1025" width="51" height="51" fill="#000000"/><rect x="617" y="1025" width="51" height="51" fill="#000000"/><rect x="1382" y="1025" width="51" height="51" fill="#000000"/><rect x="1484" y="1025" width="51" height="51" fill="#000000"/><rect x="1535" y="1025" width="51" height="51" fill="#000000"/><rect x="1688" y="1025" width="51" height="51" fill="#000000"/><rect x="158" y="1076" width="51" height="51" fill="#000000"/><rect x="209" y="1076" width="51" height="51" fill="#000000"/><rect x="260" y="1076" width="51" height="51" fill="#000000"/><rect x="311" y="1076" width="51" height="51" fill="#000000"/><rect x="413" y="1076" width="51" height="51" fill="#000000"/><rect x="464" y="1076" width="51" height="51" fill="#000000"/><rect x="515" y="1076" width="51" height="51" fill="#000000"/><rect x="617" y="1076" width="51" height="51" fill="#000000"/><rect x="1535" y="1076" width="51" height="51" fill="#000000"/><rect x="1586" y="1076" width="51" height="51" fill="#000000"/><rect x="1637" y="1076" width="51" height="51" fill="#000000"/><rect x="1688" y="1076" width="51" height="51" fill="#000000"/><rect x="158" y="1127" width="51" height="51" fill="#000000"/><rect x="260" y="1127" width="51" height="51" fill="#000000"/><rect x="362" y="1127" width="51" height="51" fill="#000000"/><rect x="515" y="1127" width="51" height="51" fill="#000000"/><rect x="566" y="1127" width="51" height="51" fill="#000000"/><rect x="1331" y="1127" width="51" height="51" fill="#000000"/><rect x="1433" y="1127" width="51" height="51" fill="#000000"/><rect x="209" y="1178" width="51" height="51" fill="#000000"/><rect x="311" y="1178" width="51" height="51" fill="#000000"/><rect x="464" y="1178" width="51" height="51" fill="#000000"/><rect x="515" y="1178" width="51" height="51" fill="#000000"/><rect x="1382" y="1178" width="51" height="51" fill="#000000"/><rect x="1535" y="1178" width="51" height="51" fill="#000000"/><rect x="1586" y="1178" width="51" height="51" fill="#000000"/><rect x="1688" y="1178" width="51" height="51" fill="#000000"/><rect x="158" y="1229" width="51" height="51" fill="#000000"/><rect x="209" y="1229" width="51" height="51" fill="#000000"/><rect x="260" y="1229" width="51" height="51" fill="#000000"/><rect x="515" y="1229" width="51" height="51" fill="#000000"/><rect x="566" y="1229" width="51" height="51" fill="#000000"/><rect x="617" y="1229" width="51" height="51" fill="#000000"/><rect x="1433" y="1229" width="51" height="51" fill="#000000"/><rect x="1535" y="1229" width="51" height="51" fill="#000000"/><rect x="1637" y="1229" width="51" height="51" fill="#000000"/><rect x="1688" y="1229" width="51" height="51" fill="#000000"/><rect x="1739" y="1229" width="51" height="51" fill="#000000"/><rect x="1790" y="1229" width="51" height="51" fill="#000000"/><rect x="158" y="1280" width="51" height="51" fill="#000000"/><rect x="311" y="1280" width="51" height="51" fill="#000000"/><rect x="362" y="1280" width="51" height="51" fill="#000000"/><rect x="464" y="1280" width="51" height="51" fill="#000000"/><rect x="515" y="1280" width="51" height="51" fill="#000000"/><rect x="617" y="1280" width="51" height="51" fill="#000000"/><rect x="1331" y="1280" width="51" height="51" fill="#000000"/><rect x="1382" y="1280" width="51" height="51" fill="#000000"/><rect x="1433" y="1280" width="51" height="51" fill="#000000"/><rect x="1586" y="1280" width="51" height="51" fill="#000000"/><rect x="1637" y="1280" width="51" height="51" fill="#000000"/><rect x="1739" y="1280" width="51" height="51" fill="#000000"/><rect x="1790" y="1280" width="51" height="51" fill="#000000"/><rect x="158" y="1331" width="51" height="51" fill="#000000"/><rect x="260" y="1331" width="51" height="51" fill="#000000"/><rect x="362" y="1331" width="51" height="51" fill="#000000"/><rect x="515" y="1331" width="51" height="51" fill="#000000"/><rect x="719" y="1331" width="51" height="51" fill="#000000"/><rect x="974" y="1331" width="51" height="51" fill="#000000"/><rect x="1076" y="1331" width="51" height="51" fill="#000000"/><rect x="1178" y="1331" width="51" height="51" fill="#000000"/><rect x="1229" y="1331" width="51" height="51" fill="#000000"/><rect x="1280" y="1331" width="51" height="51" fill="#000000"/><rect x="1331" y="1331" width="51" height="51" fill="#000000"/><rect x="1433" y="1331" width="51" height="51" fill="#000000"/><rect x="1484" y="1331" width="51" height="51" fill="#000000"/><rect x="1688" y="1331" width="51" height="51" fill="#000000"/><rect x="1790" y="1331" width="51" height="51" fill="#000000"/><rect x="158" y="1382" width="51" height="51" fill="#000000"/><rect x="311" y="1382" width="51" height="51" fill="#000000"/><rect x="413" y="1382" width="51" height="51" fill="#000000"/><rect x="464" y="1382" width="51" height="51" fill="#000000"/><rect x="566" y="1382" width="51" height="51" fill="#000000"/><rect x="668" y="1382" width="51" height="51" fill="#000000"/><rect x="770" y="1382" width="51" height="51" fill="#000000"/><rect x="821" y="1382" width="51" height="51" fill="#000000"/><rect x="872" y="1382" width="51" height="51" fill="#000000"/><rect x="1076" y="1382" width="51" height="51" fill="#000000"/><rect x="1127" y="1382" width="51" height="51" fill="#000000"/><rect x="1280" y="1382" width="51" height="51" fill="#000000"/><rect x="1331" y="1382" width="51" height="51" fill="#000000"/><rect x="1382" y="1382" width="51" height="51" fill="#000000"/><rect x="1433" y="1382" width="51" height="51" fill="#000000"/><rect x="1484" y="1382" width="51" height="51" fill="#000000"/><rect x="1535" y="1382" width="51" height="51" fill="#000000"/><rect x="1586" y="1382" width="51" height="51" fill="#000000"/><rect x="1637" y="1382" width="51" height="51" fill="#000000"/><rect x="1688" y="1382" width="51" height="51" fill="#000000"/><rect x="566" y="1433" width="51" height="51" fill="#000000"/><rect x="719" y="1433" width="51" height="51" fill="#000000"/><rect x="821" y="1433" width="51" height="51" fill="#000000"/><rect x="872" y="1433" width="51" height="51" fill="#000000"/><rect x="923" y="1433" width="51" height="51" fill="#000000"/><rect x="974" y="1433" width="51" height="51" fill="#000000"/><rect x="1025" y="1433" width="51" height="51" fill="#000000"/><rect x="1076" y="1433" width="51" height="51" fill="#000000"/><rect x="1127" y="1433" width="51" height="51" fill="#000000"/><rect x="1178" y="1433" width="51" height="51" fill="#000000"/><rect x="1229" y="1433" width="51" height="51" fill="#000000"/><rect x="1331" y="1433" width="51" height="51" fill="#000000"/><rect x="1382" y="1433" width="51" height="51" fill="#000000"/><rect x="1586" y="1433" width="51" height="51" fill="#000000"/><rect x="1637" y="1433" width="51" height="51" fill="#000000"/><rect x="1688" y="1433" width="51" height="51" fill="#000000"/><rect x="1739" y="1433" width="51" height="51" fill="#000000"/><rect x="1790" y="1433" width="51" height="51" fill="#000000"/><rect x="617" y="1484" width="51" height="51" fill="#000000"/><rect x="668" y="1484" width="51" height="51" fill="#000000"/><rect x="770" y="1484" width="51" height="51" fill="#000000"/><rect x="1025" y="1484" width="51" height="51" fill="#000000"/><rect x="1076" y="1484" width="51" height="51" fill="#000000"/><rect x="1127" y="1484" width="51" height="51" fill="#000000"/><rect x="1178" y="1484" width="51" height="51" fill="#000000"/><rect x="1229" y="1484" width="51" height="51" fill="#000000"/><rect x="1382" y="1484" width="51" height="51" fill="#000000"/><rect x="1484" y="1484" width="51" height="51" fill="#000000"/><rect x="1586" y="1484" width="51" height="51" fill="#000000"/><rect x="1739" y="1484" width="51" height="51" fill="#000000"/><rect x="1790" y="1484" width="51" height="51" fill="#000000"/><rect x="668" y="1535" width="51" height="51" fill="#000000"/><rect x="719" y="1535" width="51" height="51" fill="#000000"/><rect x="770" y="1535" width="51" height="51" fill="#000000"/><rect x="1025" y="1535" width="51" height="51" fill="#000000"/><rect x="1178" y="1535" width="51" height="51" fill="#000000"/><rect x="1229" y="1535" width="51" height="51" fill="#000000"/><rect x="1280" y="1535" width="51" height="51" fill="#000000"/><rect x="1382" y="1535" width="51" height="51" fill="#000000"/><rect x="1586" y="1535" width="51" height="51" fill="#000000"/><rect x="1790" y="1535" width="51" height="51" fill="#000000"/><rect x="566" y="1586" width="51" height="51" fill="#000000"/><rect x="668" y="1586" width="51" height="51" fill="#000000"/><rect x="872" y="1586" width="51" height="51" fill="#000000"/><rect x="1025" y="1586" width="51" height="51" fill="#000000"/><rect x="1076" y="1586" width="51" height="51" fill="#000000"/><rect x="1178" y="1586" width="51" height="51" fill="#000000"/><rect x="1229" y="1586" width="51" height="51" fill="#000000"/><rect x="1331" y="1586" width="51" height="51" fill="#000000"/><rect x="1382" y="1586" width="51" height="51" fill="#000000"/><rect x="1433" y="1586" width="51" height="51" fill="#000000"/><rect x="1484" y="1586" width="51" height="51" fill="#000000"/><rect x="1535" y="1586" width="51" height="51" fill="#000000"/><rect x="1586" y="1586" width="51" height="51" fill="#000000"/><rect x="1688" y="1586" width="51" height="51" fill="#000000"/><rect x="566" y="1637" width="51" height="51" fill="#000000"/><rect x="617" y="1637" width="51" height="51" fill="#000000"/><rect x="668" y="1637" width="51" height="51" fill="#000000"/><rect x="872" y="1637" width="51" height="51" fill="#000000"/><rect x="1076" y="1637" width="51" height="51" fill="#000000"/><rect x="1178" y="1637" width="51" height="51" fill="#000000"/><rect x="1229" y="1637" width="51" height="51" fill="#000000"/><rect x="1280" y="1637" width="51" height="51" fill="#000000"/><rect x="1433" y="1637" width="51" height="51" fill="#000000"/><rect x="1535" y="1637" width="51" height="51" fill="#000000"/><rect x="1688" y="1637" width="51" height="51" fill="#000000"/><rect x="1739" y="1637" width="51" height="51" fill="#000000"/><rect x="566" y="1688" width="51" height="51" fill="#000000"/><rect x="668" y="1688" width="51" height="51" fill="#000000"/><rect x="872" y="1688" width="51" height="51" fill="#000000"/><rect x="923" y="1688" width="51" height="51" fill="#000000"/><rect x="974" y="1688" width="51" height="51" fill="#000000"/><rect x="1280" y="1688" width="51" height="51" fill="#000000"/><rect x="1331" y="1688" width="51" height="51" fill="#000000"/><rect x="1382" y="1688" width="51" height="51" fill="#000000"/><rect x="1535" y="1688" width="51" height="51" fill="#000000"/><rect x="1586" y="1688" width="51" height="51" fill="#000000"/><rect x="1637" y="1688" width="51" height="51" fill="#000000"/><rect x="1688" y="1688" width="51" height="51" fill="#000000"/><rect x="668" y="1739" width="51" height="51" fill="#000000"/><rect x="719" y="1739" width="51" height="51" fill="#000000"/><rect x="770" y="1739" width="51" height="51" fill="#000000"/><rect x="923" y="1739" width="51" height="51" fill="#000000"/><rect x="974" y="1739" width="51" height="51" fill="#000000"/><rect x="1025" y="1739" width="51" height="51" fill="#000000"/><rect x="1076" y="1739" width="51" height="51" fill="#000000"/><rect x="1127" y="1739" width="51" height="51" fill="#000000"/><rect x="1229" y="1739" width="51" height="51" fill="#000000"/><rect x="1331" y="1739" width="51" height="51" fill="#000000"/><rect x="1433" y="1739" width="51" height="51" fill="#000000"/><rect x="1535" y="1739" width="51" height="51" fill="#000000"/><rect x="1586" y="1739" width="51" height="51" fill="#000000"/><rect x="1688" y="1739" width="51" height="51" fill="#000000"/><rect x="1739" y="1739" width="51" height="51" fill="#000000"/><rect x="1790" y="1739" width="51" height="51" fill="#000000"/><rect x="668" y="1790" width="51" height="51" fill="#000000"/><rect x="719" y="1790" width="51" height="51" fill="#000000"/><rect x="770" y="1790" width="51" height="51" fill="#000000"/><rect x="872" y="1790" width="51" height="51" fill="#000000"/><rect x="923" y="1790" width="51" height="51" fill="#000000"/><rect x="974" y="1790" width="51" height="51" fill="#000000"/><rect x="1025" y="1790" width="51" height="51" fill="#000000"/><rect x="1127" y="1790" width="51" height="51" fill="#000000"/><rect x="1229" y="1790" width="51" height="51" fill="#000000"/><rect x="1280" y="1790" width="51" height="51" fill="#000000"/><rect x="1331" y="1790" width="51" height="51" fill="#000000"/><rect x="1484" y="1790" width="51" height="51" fill="#000000"/><rect x="1637" y="1790" width="51" height="51" fill="#000000"/><rect x="1688" y="1790" width="51" height="51" fill="#000000"/><rect x="1739" y="1790" width="51" height="51" fill="#000000"/><svg version="1.0" id="Ebene_1" x="158" y="158" width="357" height="357" viewBox="0 0 699.988 699.986" enable-background="new 0 0 699.988 699.986" xml:space="preserve" shape-rendering="auto">
<g>
	<path fill="#000000" d="M67.1,632.887C23.83,589.616,0,532.286,0,471.464V-0.001h471.468c60.822,0,118.15,23.83,161.42,67.101   s67.1,100.599,67.1,161.425v471.462H228.52C167.696,699.987,110.369,676.157,67.1,632.887z M599.988,599.989V239.233   c0-76.774-62.459-139.236-139.229-139.236H99.999v360.76c0,76.771,62.459,139.232,139.231,139.232H599.988L599.988,599.989z"/>
</g>
</svg>
<svg version="1.0" id="Ebene_1" x="158" y="158" width="357" height="357" viewBox="0 0 699.988 699.986" enable-background="new 0 0 699.988 699.986" xml:space="preserve" shape-rendering="auto">
<path fill="#e20a0a" d="M499.99,291.612v208.377H291.61c-50.382,0-91.612-41.229-91.612-91.613V199.996h208.383  C458.76,199.996,499.99,241.228,499.99,291.612z"/>
</svg>
<svg version="1.1" id="Ebene_1" x="1484" y="158" width="357" height="357" viewBox="0 0 699.988 699.986" enable-background="new 0 0 699.988 699.986" xml:space="preserve" shape-rendering="auto">
<g>
	<path fill="#000000" d="M472.469,699.987H1V228.525C1,167.698,24.829,110.37,68.099,67.1C111.368,23.83,168.697,0,229.523,0   h471.465v471.463c0,60.824-23.83,118.153-67.1,161.426C590.618,676.158,533.292,699.987,472.469,699.987z M100.998,599.989H461.76   c76.771,0,139.229-62.461,139.229-139.234V99.997H240.232c-76.773,0-139.233,62.461-139.233,139.235L100.998,599.989   L100.998,599.989z"/>
</g>
</svg>
<svg version="1.1" id="Ebene_1" x="1484" y="158" width="357" height="357" viewBox="0 0 699.988 699.986" enable-background="new 0 0 699.988 699.986" xml:space="preserve" shape-rendering="auto">
<path fill="#0b2ff0" d="M199.997,291.612V499.99h208.382c50.383,0,91.612-41.229,91.612-91.614V199.997H291.61  C241.227,199.997,199.997,241.228,199.997,291.612z"/>
</svg>
<svg version="1.1" id="Ebene_1" x="158" y="1484" width="357" height="357" viewBox="0 0 699.988 699.986" enable-background="new 0 0 699.988 699.986" xml:space="preserve" shape-rendering="auto">
<g>
	<path fill="#000000" d="M472.469,699.987H1V228.525C1,167.698,24.829,110.37,68.099,67.1C111.368,23.83,168.697,0,229.523,0   h471.465v471.463c0,60.824-23.83,118.153-67.1,161.426C590.618,676.158,533.292,699.987,472.469,699.987z M100.998,599.989H461.76   c76.771,0,139.229-62.461,139.229-139.234V99.997H240.232c-76.773,0-139.233,62.461-139.233,139.235L100.998,599.989   L100.998,599.989z"/>
</g>
</svg>
<svg version="1.1" id="Ebene_1" x="158" y="1484" width="357" height="357" viewBox="0 0 699.988 699.986" enable-background="new 0 0 699.988 699.986" xml:space="preserve" shape-rendering="auto">
<path fill="#179705" d="M199.997,291.612V499.99h208.382c50.383,0,91.612-41.229,91.612-91.614V199.997H291.61  C241.227,199.997,199.997,241.228,199.997,291.612z"/>
</svg>
<svg version="1.0" id="Layer_1" x="693" y="693" viewBox="0 0 700 700" enable-background="new 0 0 700 700" xml:space="preserve" width="612" height="612" shape-rendering="auto">
<g>
	<g>
		<g>
			<path fill="#000000" d="M172.3,220.5c0-5.7-2-10.3-6.1-13.8c-4-3.5-11.1-6.7-21.3-9.8c-17.7-5.1-31-11.1-40.1-18.1     s-13.6-16.6-13.6-28.7s5.2-22.1,15.6-29.8c10.4-7.7,23.6-11.6,39.7-11.6c16.3,0,29.6,4.3,39.9,13c10.3,8.7,15.2,19.3,14.9,32.1     l-0.2,0.6h-28.8c0-6.9-2.3-12.4-6.9-16.7c-4.6-4.2-11-6.4-19.3-6.4c-8,0-14.1,1.8-18.5,5.3c-4.3,3.5-6.5,8.1-6.5,13.6     c0,5,2.3,9.2,7,12.4c4.7,3.2,12.7,6.6,24.1,10.2c16.4,4.6,28.8,10.6,37.2,18s12.6,17.3,12.6,29.5c0,12.7-5,22.7-15,30.1     c-10,7.3-23.3,11-39.7,11c-16.2,0-30.3-4.2-42.3-12.5c-12-8.3-17.9-20-17.5-35l0.2-0.6h29c0,8.8,2.7,15.3,8.1,19.4     c5.4,4.1,12.9,6.2,22.6,6.2c8.1,0,14.3-1.7,18.6-5C170.2,230.6,172.3,226.1,172.3,220.5z"/>
			<path fill="#000000" d="M336.7,208.7l0.2,0.6c0.3,16-4.6,28.6-14.6,38c-10,9.4-23.9,14.1-41.7,14.1c-17.9,0-32.4-5.7-43.5-17.2     s-16.7-26.3-16.7-44.3v-29.5c0-18,5.4-32.8,16.3-44.3s25-17.3,42.4-17.3c18.3,0,32.7,4.7,43,14.1c10.3,9.4,15.4,22.2,15.1,38.5     l-0.2,0.6h-29c0-9.8-2.3-17.3-7-22.5c-4.7-5.2-12-7.8-21.9-7.8c-8.9,0-16,3.6-21.2,10.8c-5.2,7.2-7.8,16.4-7.8,27.7v29.6     c0,11.3,2.8,20.6,8.3,27.9c5.5,7.2,12.9,10.8,22.3,10.8c9.3,0,16.2-2.5,20.6-7.5c4.4-5,6.7-12.4,6.7-22.3H336.7z"/>
			<path fill="#000000" d="M437.7,227.3h-52.1l-10.1,32h-30.1l51.1-148.4H427l50.9,148.4h-30.1L437.7,227.3z M392.9,203.9h37.4     L412,145.6h-0.6L392.9,203.9z"/>
			<path fill="#000000" d="M611.7,259.3H582l-59.9-101.4l-0.6,0.1v101.3h-29.8V110.9h29.8l59.9,101.3l0.6-0.1V110.9h29.7V259.3z"/>
		</g>
		<g>
			<path fill="#000000" d="M135.3,314.8l88.1,224.6h1.1l88.1-224.6h47.8v276.5h-37.4V481.9l3.8-112.4l-0.9-0.2l-89.6,222h-24.9     l-89.2-221.4l-0.9,0.2l3.6,111.8v109.4H87.5V314.8H135.3z"/>
			<path fill="#000000" d="M593.1,463.1H466.5v98.7h146v29.4H429.1V314.8h181.3v29.4H466.5v89.4h126.6V463.1z"/>
		</g>
	</g>
</g>
</svg>
</svg>

<path id="FrameBody" class="frame-color" d="M243.1,289.8H35.9c-19.8,0-35.9,16.1-35.9,36l0,0c0,19.8,16.1,35.9,35.9,35.9H243
	c19.8,0,35.9-16.1,35.9-35.9l0,0C279,305.9,262.9,289.8,243.1,289.8L243.1,289.8z M265.3,0H13.7C6.1,0,0,6.1,0,13.7v251.7
	c0,7.5,6.1,13.7,13.7,13.7h251.7c7.5,0,13.7-6.1,13.7-13.7V13.7C279,6.1,272.9,0,265.3,0z M268.5,261.1c0,4.1-3.3,7.4-7.4,7.4H17.9
	c-4.1,0-7.4-3.3-7.4-7.4V17.9c0-4.1,3.3-7.4,7.4-7.4h243.2c4.1,0,7.4,3.3,7.4,7.4V261.1z"/>
<path id="IconCircle" class="circle-color show_on_light" d="M35.9,297.2c-15.8,0-28.5,12.7-28.5,28.5s12.7,28.5,28.5,28.5s28.5-12.7,28.5-28.5
	C64.4,310,51.7,297.2,35.9,297.2z"/>
<path id="IconCircle" class="circle-color-black hide_on_light" d="M35.9,297.2c-15.8,0-28.5,12.7-28.5,28.5s12.7,28.5,28.5,28.5s28.5-12.7,28.5-28.5
	C64.4,310,51.7,297.2,35.9,297.2z"/>
<path id="IconCircleOutline" class="circle-outline show_on_light" d="M35.9,299.2c14.6,0,26.5,11.9,26.5,26.5s-11.9,26.5-26.5,26.5S9.4,340.3,9.4,325.7
	S21.3,299.2,35.9,299.2 M35.9,297.2c-15.8,0-28.5,12.7-28.5,28.5s12.7,28.5,28.5,28.5s28.5-12.7,28.5-28.5
	C64.4,310,51.7,297.2,35.9,297.2L35.9,297.2z"/>
<path id="PdfIcon" class="icon-color hide_on_light" d="M22.4,343.1c-0.6,0-1.2-0.2-1.7-0.5c-1.3-0.8-1.8-2.1-1.6-3.6c0.5-2.9,4.3-6.1,9.5-8.3
	c1.4-3.2,2.6-6.9,3.6-10.6c-3.3-5.1-4.9-9.8-3.9-12.4c0.4-1.1,1.3-1.8,2.5-1.9c1-0.1,2.4,0.3,3.6,1.7c1.4,1.6,2.7,5,1.1,12.1
	c0.9,1.3,1.9,2.6,3.2,4c1.3,1.5,2.5,2.7,3.6,3.8c7.4-1,9.8,0.1,11,1.1c0.9,0.7,1.4,1.7,1.4,2.9c0,1.7-0.9,3-2.4,3.6
	c-1.7,0.6-5.1,0.7-11-4.4c-1.4,0.2-2.9,0.5-4.6,0.9c-2.1,0.4-4.1,1-5.7,1.7c-2.2,4.9-4.7,8.9-7.2,9.9
	C23.3,343,22.8,343.1,22.4,343.1z M26.5,335.1c-2.7,1.7-4.2,3.4-4.4,4.4c0,0.3,0,0.4,0.2,0.5c0,0,0.1,0,0.2,0
	C23.7,339.6,25.1,337.7,26.5,335.1z M45.5,329.9c2.9,2.1,4.8,2.4,5.7,2.1c0.1-0.1,0.5-0.2,0.5-0.8c0-0.3-0.1-0.4-0.3-0.6
	C50.9,330.2,49.6,329.6,45.5,329.9z M34.5,323.1c-0.6,2-1.3,4-2,6.1c1.2-0.4,2.4-0.7,3.6-0.9c0.9-0.2,1.7-0.3,2.5-0.5
	c-0.7-0.7-1.4-1.5-2.2-2.3C35.7,324.7,35.1,323.9,34.5,323.1z M31.1,308.7c-0.3,0.6,0,3.2,2,6.9c0.4-3.8-0.3-5.5-0.9-6.2
	C31.8,308.9,31.3,308.7,31.1,308.7z"/>
<path id="PdfIconBlack" class="icon-black show_on_light" d="M22.4,343.1c-0.6,0-1.2-0.2-1.7-0.5c-1.3-0.8-1.8-2.1-1.6-3.6c0.5-2.9,4.3-6.1,9.5-8.3
	c1.4-3.2,2.6-6.9,3.6-10.6c-3.3-5.1-4.9-9.8-3.9-12.4c0.4-1.1,1.3-1.8,2.5-1.9c1-0.1,2.4,0.3,3.6,1.7c1.4,1.6,2.7,5,1.1,12.1
	c0.9,1.3,1.9,2.6,3.2,4c1.3,1.5,2.5,2.7,3.6,3.8c7.4-1,9.8,0.1,11,1.1c0.9,0.7,1.4,1.7,1.4,2.9c0,1.7-0.9,3-2.4,3.6
	c-1.7,0.6-5.1,0.7-11-4.4c-1.4,0.2-2.9,0.5-4.6,0.9c-2.1,0.4-4.1,1-5.7,1.7c-2.2,4.9-4.7,8.9-7.2,9.9
	C23.3,343,22.8,343.1,22.4,343.1z M26.5,335.1c-2.7,1.7-4.2,3.4-4.4,4.4c0,0.3,0,0.4,0.2,0.5c0,0,0.1,0,0.2,0
	C23.7,339.6,25.1,337.7,26.5,335.1z M45.5,329.9c2.9,2.1,4.8,2.4,5.7,2.1c0.1-0.1,0.5-0.2,0.5-0.8c0-0.3-0.1-0.4-0.3-0.6
	C50.9,330.2,49.6,329.6,45.5,329.9z M34.5,323.1c-0.6,2-1.3,4-2,6.1c1.2-0.4,2.4-0.7,3.6-0.9c0.9-0.2,1.7-0.3,2.5-0.5
	c-0.7-0.7-1.4-1.5-2.2-2.3C35.7,324.7,35.1,323.9,34.5,323.1z M31.1,308.7c-0.3,0.6,0,3.2,2,6.9c0.4-3.8-0.3-5.5-0.9-6.2
	C31.8,308.9,31.3,308.7,31.1,308.7z"/>
	<svg id="TextArea" x="70" y="295" width="180" height="62" viewBox="0 0 65.162109375 17.588541666667" preserveAspectRatio="xMidYMid meet">
<svg version="1.1" xmlns="http://www.w3.org/2000/svg"><path class="text-color" fill="#FFFFFF" d=" M2.857421875,5.3388671875l1.03662109375,0l1.76708984375,5.0380859375q0.33837890625,0.9560546875,0.494140625,1.71337890625q0.13427734375-0.6767578125,0.49951171875-1.73486328125l1.75634765625-5.0166015625l1.04736328125,0l-2.8037109375,7.8525390625l-0.99365234375,0z M11.35986328125,13.19140625l-0.966796875,0l0-5.8974609375l0.966796875,0l0,5.8974609375z M10.31787109375,5.69873046875q0-0.322265625,0.163818359375-0.46728515625t0.405517578125-0.14501953125q0.2255859375,0,0.394775390625,0.14501953125t0.169189453125,0.46728515625q0,0.31689453125-0.169189453125,0.46728515625t-0.394775390625,0.150390625q-0.24169921875,0-0.405517578125-0.150390625t-0.163818359375-0.46728515625z M15.7373046875,13.298828125q-1.32666015625,0-2.081298828125-0.802978515625t-0.754638671875-2.210205078125q0-1.41796875,0.70361328125-2.258544921875t1.9013671875-0.840576171875q1.11181640625,0,1.7724609375,0.717041015625t0.66064453125,1.941650390625l0,0.58544921875l-4.0390625,0q0.02685546875,1.00439453125,0.51025390625,1.525390625t1.36962890625,0.52099609375q0.47265625,0,0.89697265625-0.083251953125t0.99365234375-0.324951171875l0,0.8486328125q-0.48876953125,0.20947265625-0.91845703125,0.29541015625t-1.01513671875,0.0859375z M15.49560546875,7.97607421875q-0.69287109375,0-1.095703125,0.44580078125t-0.47802734375,1.24072265625l3.00244140625,0q-0.0107421875-0.8271484375-0.38134765625-1.2568359375t-1.04736328125-0.4296875z M24.25048828125,13.19140625l-1.009765625-3.3193359375q-0.1396484375-0.41357421875-0.408203125-1.56298828125l-0.04296875,0q-0.2255859375,1.04736328125-0.3974609375,1.57373046875l-1.05810546875,3.30859375l-1.095703125,0l-1.61669921875-5.8974609375l0.9990234375,0q0.55859375,2.17529296875,0.851318359375,3.30859375t0.346435546875,1.6005859375l0.04296875,0l0.0751953125-0.3330078125q0.16650390625-0.76806640625,0.322265625-1.25146484375l1.04736328125-3.32470703125l1.052734375,0l1.01513671875,3.32470703125q0.0537109375,0.18798828125,0.115478515625,0.400146484375t0.115478515625,0.4189453125t0.0966796875,0.40283203125t0.064453125,0.351806640625l0.04833984375,0q0.04833984375-0.408203125,0.39208984375-1.7509765625l0.8271484375-3.1474609375l0.98828125,0l-1.63818359375,5.8974609375l-1.13330078125,0z  M38.44091796875,13.19140625l0-3.79736328125q0-1.396484375-1.19775390625-1.396484375q-0.82177734375,0-1.20849609375,0.47802734375t-0.38671875,1.4609375l0,3.2548828125l-0.96142578125,0l0-3.79736328125q0-0.6982421875-0.292724609375-1.04736328125t-0.915771484375-0.34912109375q-0.81640625,0-1.195068359375,0.49951171875t-0.378662109375,1.63818359375l0,3.05615234375l-0.966796875,0l0-5.8974609375l0.77880859375,0l0.14501953125,0.8056640625l0.0537109375,0q0.25244140625-0.4296875,0.711669921875-0.67138671875t1.028564453125-0.24169921875q1.3857421875,0,1.8046875,0.98828125l0.0537109375,0q0.28466796875-0.47265625,0.776123046875-0.73046875t1.114501953125-0.2578125q0.9990234375,0,1.495849609375,0.515625t0.496826171875,1.64892578125l0,3.84033203125l-0.9560546875,0z M40.29931640625,7.2939453125l1.03662109375,0l1.27294921875,3.35693359375q0.40283203125,1.095703125,0.494140625,1.60595703125l0.04296875,0q0.04833984375-0.19873046875,0.22021484375-0.743896484375t0.2900390625-0.872802734375l1.19775390625-3.34619140625l1.0419921875,0l-2.54052734375,6.7138671875q-0.37060546875,0.9775390625-0.880859375,1.40185546875t-1.26220703125,0.42431640625q-0.40283203125,0-0.80029296875-0.09130859375l0-0.76806640625q0.2685546875,0.064453125,0.64453125,0.064453125q0.4619140625,0,0.7841796875-0.255126953125t0.5263671875-0.786865234375l0.30615234375-0.7841796875z  M53.1845703125,6.09619140625q-1.267578125,0-1.99267578125,0.8486328125t-0.72509765625,2.3203125q0,1.52001953125,0.70361328125,2.344482421875t2.00341796875,0.824462890625q0.837890625,0,1.88525390625-0.3115234375l0,0.859375q-0.49951171875,0.1826171875-0.96142578125,0.249755859375t-1.0634765625,0.067138671875q-1.73486328125,0-2.672119140625-1.055419921875t-0.937255859375-2.989013671875q0-1.2138671875,0.448486328125-2.126953125t1.30517578125-1.4072265625t2.016845703125-0.494140625q1.24609375,0,2.169921875,0.4619140625l-0.3974609375,0.837890625q-0.93994140625-0.4296875-1.783203125-0.4296875z M55.70361328125,5.3388671875l1.03662109375,0l1.76708984375,5.0380859375q0.33837890625,0.9560546875,0.494140625,1.71337890625q0.13427734375-0.6767578125,0.49951171875-1.73486328125l1.75634765625-5.0166015625l1.04736328125,0l-2.8037109375,7.8525390625l-0.99365234375,0z "/></svg>
</svg>

</svg>
